<?xml version="1.0" encoding="UTF-8"?>
<svg xmlns="http://www.w3.org/2000/svg" width="400" height="400" viewBox="0 0 400 400">
  <defs>
    <pattern id="goldFlowerPattern" patternUnits="userSpaceOnUse" width="200" height="200">
      <g transform="translate(100,100)">
        <circle r="90" fill="none" stroke="#C7A45D" stroke-width="0.5" />
        <g stroke="#C7A45D" stroke-width="1.2" fill="none" stroke-linecap="round">
          <polygon points="0,-80 23,-23 80,0 23,23 0,80 -23,23 -80,0 -23,-23" />
          <polygon points="0,-60 17,-17 60,0 17,17 0,60 -17,17 -60,0 -17,-17" />
          <polygon points="0,-40 11,-11 40,0 11,11 0,40 -11,11 -40,0 -11,-11" />
        </g>
        <circle r="6" fill="#C7A45D"/>
      </g>
    </pattern>
  </defs>
  <rect width="100%" height="100%" fill="white"/>
  <rect width="100%" height="100%" fill="url(#goldFlowerPattern)" opacity="0.6"/>
</svg>
